<?xml version="1.0" encoding="iso-8859-1"?>
<!-- Generator: Adobe Illustrator 19.0.0, SVG Export Plug-In . SVG Version: 6.00 Build 0)  -->
<svg version="1.1" id="Capa_1" xmlns="http://www.w3.org/2000/svg" xmlns:xlink="http://www.w3.org/1999/xlink" x="0px" y="0px"
	 viewBox="0 0 480 480" style="enable-background:new 0 0 480 480;" xml:space="preserve">
<g>
	<g>
		<path d="M72,72c-13.255,0-24-10.745-24-24c0-4.418-3.582-8-8-8s-8,3.582-8,8c0,13.255-10.745,24-24,24c-4.418,0-8,3.582-8,8
			s3.582,8,8,8c13.255,0,24,10.745,24,24c0,4.418,3.582,8,8,8s8-3.582,8-8c0-13.255,10.745-24,24-24c4.418,0,8-3.582,8-8
			S76.418,72,72,72z M40,88c-2.278-3.029-4.971-5.722-8-8c3.029-2.278,5.722-4.971,8-8c2.278,3.029,4.971,5.722,8,8
			C44.971,82.278,42.278,84.971,40,88z"/>
	</g>
</g>
<g>
	<g>
		<rect x="80" width="16" height="16"/>
	</g>
</g>
<g>
	<g>
		<rect x="80" y="32" width="16" height="16"/>
	</g>
</g>
<g>
	<g>
		<rect x="64" y="16" width="16" height="16"/>
	</g>
</g>
<g>
	<g>
		<rect x="96" y="16" width="16" height="16"/>
	</g>
</g>
<g>
	<g>
		<path d="M472,408c-13.255,0-24-10.745-24-24c0-4.418-3.582-8-8-8s-8,3.582-8,8c0,13.255-10.745,24-24,24c-4.418,0-8,3.582-8,8
			s3.582,8,8,8c13.255,0,24,10.745,24,24c0,4.418,3.582,8,8,8s8-3.582,8-8c0-13.255,10.745-24,24-24c4.418,0,8-3.582,8-8
			S476.418,408,472,408z M440,424c-2.278-3.029-4.971-5.722-8-8c3.029-2.278,5.722-4.971,8-8c2.278,3.029,4.971,5.722,8,8
			C444.971,418.278,442.278,420.971,440,424z"/>
	</g>
</g>
<g>
	<g>
		<rect x="368" y="464" width="16" height="16"/>
	</g>
</g>
<g>
	<g>
		<rect x="368" y="432" width="16" height="16"/>
	</g>
</g>
<g>
	<g>
		<rect x="384" y="448" width="16" height="16"/>
	</g>
</g>
<g>
	<g>
		<rect x="352" y="448" width="16" height="16"/>
	</g>
</g>
<g>
	<g>
		<path d="M440,248h-24v-64C416,86.798,337.202,8,240,8S64,86.798,64,184v64H40c-22.091,0-40,17.909-40,40c0,22.091,17.909,40,40,40
			h67.72l29.6,44.44c1.489,2.232,3.997,3.568,6.68,3.56h192c2.674,0,5.172-1.335,6.656-3.56L372.28,328H440
			c22.091,0,40-17.909,40-40C480,265.909,462.091,248,440,248z M240,24c88.324,0.101,159.899,71.676,160,160h-96v-24
			c-0.026-22.08-17.92-39.974-40-40v-16c0-4.418-3.582-8-8-8s-8,3.582-8,8v16h-16v-16c0-4.418-3.582-8-8-8s-8,3.582-8,8v16
			c-22.08,0.026-39.974,17.92-40,40v24H80C80.101,95.676,151.677,24.101,240,24z M288,160v24h-96v-24c0-13.255,10.745-24,24-24h48
			C277.255,136,288,146.745,288,160z M80,200h320v48H80V200z M331.72,360H148.28l-21.336-32h226.112L331.72,360z M440,312H40
			c-13.255,0-24-10.745-24-24s10.745-24,24-24h400c13.255,0,24,10.745,24,24S453.255,312,440,312z"/>
	</g>
</g>
<g>
	<g>
		<path d="M240,40c-49.697-0.103-95.904,25.533-122.12,67.752c-2.346,3.755-1.204,8.702,2.552,11.048
			c3.756,2.346,8.702,1.204,11.048-2.552C154.77,78.719,195.831,55.923,240,56c4.418,0,8-3.582,8-8S244.418,40,240,40z"/>
	</g>
</g>
<g>
	<g>
		<rect x="208" y="152" width="16" height="16"/>
	</g>
</g>
<g>
	<g>
		<rect x="256" y="152" width="16" height="16"/>
	</g>
</g>
<g>
	<g>
		<path d="M184,392c-4.418,0-8,3.582-8,8v32c0,4.418,3.582,8,8,8s8-3.582,8-8v-32C192,395.582,188.418,392,184,392z"/>
	</g>
</g>
<g>
	<g>
		<path d="M224,392c-4.418,0-8,3.582-8,8v56c0,4.418,3.582,8,8,8s8-3.582,8-8v-56C232,395.582,228.418,392,224,392z"/>
	</g>
</g>
<g>
	<g>
		<path d="M256,392c-4.418,0-8,3.582-8,8v72c0,4.418,3.582,8,8,8s8-3.582,8-8v-72C264,395.582,260.418,392,256,392z"/>
	</g>
</g>
<g>
	<g>
		<path d="M288,392c-4.418,0-8,3.582-8,8v32c0,4.418,3.582,8,8,8s8-3.582,8-8v-32C296,395.582,292.418,392,288,392z"/>
	</g>
</g>
<g>
	<g>
		<path d="M64,280H40c-4.418,0-8,3.582-8,8s3.582,8,8,8h24c4.418,0,8-3.582,8-8S68.418,280,64,280z"/>
	</g>
</g>
<g>
	<g>
		<path d="M440,280h-24c-4.418,0-8,3.582-8,8s3.582,8,8,8h24c4.418,0,8-3.582,8-8S444.418,280,440,280z"/>
	</g>
</g>
<g>
	<g>
		<path d="M256,280h-32c-4.418,0-8,3.582-8,8s3.582,8,8,8h32c4.418,0,8-3.582,8-8S260.418,280,256,280z"/>
	</g>
</g>
<g>
</g>
<g>
</g>
<g>
</g>
<g>
</g>
<g>
</g>
<g>
</g>
<g>
</g>
<g>
</g>
<g>
</g>
<g>
</g>
<g>
</g>
<g>
</g>
<g>
</g>
<g>
</g>
<g>
</g>
</svg>
